<svg xmlns="http://www.w3.org/2000/svg" xmlns:xlink="http://www.w3.org/1999/xlink" width="20px" height="20px" viewBox="0 0 20 20" version="1.1">
<g id="surface1">
<path style=" stroke:none;fill-rule:nonzero;fill:#44558f;fill-opacity:1;" d="M 6.269531 5.136719 L 13.996094 9.59375 C 14.308594 9.773438 14.308594 10.226562 13.996094 10.40625 L 6.269531 14.863281 C 5.960938 15.042969 5.570312 14.820312 5.570312 14.460938 L 5.570312 5.539062 C 5.570312 5.179688 5.960938 4.957031 6.269531 5.136719 Z M 6.269531 5.136719 "/>
<path style=" stroke:none;fill-rule:nonzero;fill:#44558f;fill-opacity:1;" d="M 13.996094 9.59375 L 6.269531 5.136719 C 6.222656 5.109375 6.175781 5.09375 6.128906 5.082031 L 13.597656 9.394531 C 13.90625 9.574219 13.90625 10.023438 13.597656 10.203125 L 5.871094 14.664062 C 5.800781 14.703125 5.726562 14.722656 5.65625 14.726562 C 5.785156 14.914062 6.046875 14.992188 6.269531 14.863281 L 13.996094 10.40625 C 14.308594 10.226562 14.308594 9.773438 13.996094 9.59375 Z M 13.996094 9.59375 "/>
<path style="fill:none;stroke-width:1;stroke-linecap:butt;stroke-linejoin:miter;stroke:rgb(0%,0%,0%);stroke-opacity:1;stroke-miterlimit:10;" d="M 31.347656 25.683594 L 69.980469 47.96875 C 71.542969 48.867188 71.542969 51.132812 69.980469 52.03125 L 31.347656 74.316406 C 29.804688 75.214844 27.851562 74.101562 27.851562 72.304688 L 27.851562 27.695312 C 27.851562 25.898438 29.804688 24.785156 31.347656 25.683594 Z M 31.347656 25.683594 " transform="matrix(0.2,0,0,0.2,0,0)"/>
</g>
</svg>
